<svg width="604" height="59" viewBox="0 0 604 59" fill="none" xmlns="http://www.w3.org/2000/svg">
<path d="M2.92908 34.5313C1.11859 31.4214 1.11859 27.5786 2.92908 24.4687L14.2815 4.96875C16.0725 1.89237 19.3639 1.05977e-05 22.9237 1.04421e-05L581.076 -1.39556e-05C584.636 -1.41112e-05 587.927 1.89235 589.719 4.96874L601.071 24.4687C602.881 27.5786 602.881 31.4214 601.071 34.5312L589.719 54.0312C587.927 57.1076 584.636 59 581.076 59L22.9237 59C19.3639 59 16.0725 57.1076 14.2815 54.0312L2.92908 34.5313Z" fill="url(#paint0_linear_3470_16854)"/>

<path fill-rule="evenodd" clip-rule="evenodd" d="M212 29C212 28.7239 211.776 28.5 211.5 28.5H199.707L202.854 25.3536C203.049 25.1583 203.049 24.8417 202.854 24.6464C202.658 24.4512 202.342 24.4512 202.146 24.6464L198.146 28.6464C197.951 28.8417 197.951 29.1583 198.146 29.3536L202.146 33.3536C202.342 33.5488 202.658 33.5488 202.854 33.3536C203.049 33.1583 203.049 32.8417 202.854 32.6464L199.707 29.5H211.5C211.776 29.5 212 29.2761 212 29Z" fill="#D58220"/>
<defs>
<linearGradient id="paint0_linear_3470_16854" x1="475.5" y1="48.5" x2="194" y2="-3.75548e-06" gradientUnits="userSpaceOnUse">
<stop stop-color="#F29220"/>
<stop offset="1" stop-color="#D68220"/>
</linearGradient>
</defs>
</svg>
