<svg width="602" height="59" viewBox="0 0 602 59" fill="none" xmlns="http://www.w3.org/2000/svg">
<path d="M1.92908 34.5313C0.118594 31.4214 0.118593 27.5786 1.92908 24.4687L13.2815 4.96875C15.0725 1.89237 18.3639 1.05977e-05 21.9237 1.04421e-05L580.076 -1.39556e-05C583.636 -1.41112e-05 586.927 1.89235 588.719 4.96874L600.071 24.4687C601.881 27.5786 601.881 31.4214 600.071 34.5312L588.719 54.0312C586.927 57.1076 583.636 59 580.076 59L21.9237 59C18.3639 59 15.0725 57.1076 13.2815 54.0312L1.92908 34.5313Z" fill="url(#paint0_linear_3611_21653)"/>
<defs>
<linearGradient id="paint0_linear_3611_21653" x1="474.5" y1="48.5" x2="193" y2="-3.75548e-06" gradientUnits="userSpaceOnUse">
<stop stop-color="#CB7814"/>
<stop offset="1" stop-color="#F5A84D"/>
</linearGradient>
</defs>
</svg>
