<svg width="20" height="20" viewBox="0 0 20 20" fill="none" xmlns="http://www.w3.org/2000/svg">
<path fill-rule="evenodd" clip-rule="evenodd" d="M10 0C12.7614 0 15 2.23858 15 5V7.56226C16.4264 7.85178 17.5 9.11313 17.5 10.625V16.875C17.5 18.6009 16.1009 20 14.375 20H5.625C3.89911 20 2.5 18.6009 2.5 16.875V10.625C2.5 9.11313 3.57358 7.85178 5 7.56226V5C5 2.23858 7.23858 0 10 0ZM5.625 8.75C4.58947 8.75 3.75 9.58947 3.75 10.625V16.875C3.75 17.9105 4.58947 18.75 5.625 18.75H14.375C15.4105 18.75 16.25 17.9105 16.25 16.875V10.625C16.25 9.58947 15.4105 8.75 14.375 8.75H5.625ZM10 1.25C7.92893 1.25 6.25 2.92893 6.25 5V7.5H13.75V5C13.75 2.92893 12.0711 1.25 10 1.25Z" fill="#5C5E8A"/>
</svg>
