<svg width="190" height="40" viewBox="0 0 190 40" fill="none" xmlns="http://www.w3.org/2000/svg">
<path d="M1.96047 25.0542C0.132104 21.9328 0.132107 18.0672 1.96048 14.9458L7.81791 4.9458C9.61228 1.88238 12.8964 1.84661e-05 16.4466 1.83109e-05L173.553 1.14435e-05C177.104 1.12883e-05 180.388 1.88238 182.182 4.9458L188.04 14.9458C189.868 18.0672 189.868 21.9328 188.04 25.0542L182.182 35.0542C180.388 38.1176 177.104 40 173.553 40L16.4466 40C12.8964 40 9.61228 38.1176 7.81791 35.0542L1.96047 25.0542Z" fill="url(#paint0_linear_3611_21666)"/>
<defs>
<linearGradient id="paint0_linear_3611_21666" x1="150.152" y1="32.8814" x2="58.61" y2="25.4863" gradientUnits="userSpaceOnUse">
<stop stop-color="#CB7814"/>
<stop offset="1" stop-color="#F5A84D"/>
</linearGradient>
</defs>
</svg>
