<svg width="32" height="32" viewBox="0 0 32 32" fill="none" xmlns="http://www.w3.org/2000/svg">
<path d="M1.73205 19C0.660254 17.1436 0.660254 14.8564 1.73205 13L6.26795 5.14359C7.33975 3.28719 9.32051 2.1436 11.4641 2.1436L20.5359 2.1436C22.6795 2.1436 24.6603 3.28719 25.7321 5.1436L30.268 13C31.3397 14.8564 31.3397 17.1436 30.268 19L25.7321 26.8564C24.6603 28.7128 22.6795 29.8564 20.5359 29.8564L11.4641 29.8564C9.32051 29.8564 7.33975 28.7128 6.26795 26.8564L1.73205 19Z" fill="url(#paint0_linear_3581_999)" fill-opacity="0.1"/>
<path fill-rule="evenodd" clip-rule="evenodd" d="M20 16.0003C20 15.8426 19.8721 15.7146 19.7143 15.7146H12.9755L14.7735 13.9167C14.885 13.8051 14.885 13.6242 14.7735 13.5126C14.6619 13.401 14.481 13.401 14.3694 13.5126L12.0837 15.7983C11.9721 15.9099 11.9721 16.0908 12.0837 16.2024L14.3694 18.4881C14.481 18.5997 14.6619 18.5997 14.7735 18.4881C14.885 18.3765 14.885 18.1956 14.7735 18.084L12.9755 16.2861H19.7143C19.8721 16.2861 20 16.1581 20 16.0003Z" fill="#D68320"/>
<defs>
<linearGradient id="paint0_linear_3581_999" x1="25.1921" y1="26.3051" x2="9.83979" y2="26.0467" gradientUnits="userSpaceOnUse">
<stop stop-color="#F29220"/>
<stop offset="1" stop-color="#D68220"/>
</linearGradient>
</defs>
</svg>
