<svg width="32" height="32" viewBox="0 0 32 32" fill="none" xmlns="http://www.w3.org/2000/svg">
<path d="M1.73205 19C0.660254 17.1436 0.660254 14.8564 1.73205 13L6.26795 5.14359C7.33975 3.28719 9.32051 2.1436 11.4641 2.1436L20.5359 2.1436C22.6795 2.1436 24.6603 3.28719 25.7321 5.1436L30.268 13C31.3397 14.8564 31.3397 17.1436 30.268 19L25.7321 26.8564C24.6603 28.7128 22.6795 29.8564 20.5359 29.8564L11.4641 29.8564C9.32051 29.8564 7.33975 28.7128 6.26795 26.8564L1.73205 19Z" fill="white"/>
<path fill-rule="evenodd" clip-rule="evenodd" d="M20 15.9999C20 15.8421 19.8721 15.7141 19.7143 15.7141H12.9755L14.7735 13.9162C14.885 13.8046 14.885 13.6237 14.7735 13.5121C14.6619 13.4005 14.481 13.4005 14.3694 13.5121L12.0837 15.7978C11.9721 15.9094 11.9721 16.0903 12.0837 16.2019L14.3694 18.4876C14.481 18.5992 14.6619 18.5992 14.7735 18.4876C14.885 18.376 14.885 18.1951 14.7735 18.0835L12.9755 16.2856H19.7143C19.8721 16.2856 20 16.1577 20 15.9999Z" fill="#D68320"/>
</svg>
