<?xml version="1.0" standalone="no"?>
<!DOCTYPE svg PUBLIC "-//W3C//DTD SVG 20010904//EN"
 "http://www.w3.org/TR/2001/REC-SVG-20010904/DTD/svg10.dtd">
<svg version="1.0" xmlns="http://www.w3.org/2000/svg"
 width="900.000000pt" height="500.000000pt" viewBox="0 0 900.000000 500.000000"
 preserveAspectRatio="xMidYMid meet">
<metadata>
Created by potrace 1.15, written by Peter Selinger 2001-2017
</metadata>
<g transform="translate(0.000000,500.000000) scale(0.100000,-0.100000)"
fill="#000000" stroke="none">
<path d="M6530 2500 l0 -1210 1145 0 1145 0 0 1210 0 1210 -1145 0 -1145 0 0
-1210z m2130 5 l0 -1045 -990 0 -990 0 0 1045 0 1045 990 0 990 0 0 -1045z"/>
<path d="M7479 3162 l-194 -117 -3 -201 -2 -200 -173 -105 -172 -104 -3 -236
-2 -236 190 -117 c105 -64 195 -116 201 -116 6 0 82 43 169 95 86 52 164 97
173 100 9 4 81 -34 178 -94 90 -56 168 -101 172 -102 5 -1 96 52 202 117 l194
119 1 236 0 235 -175 105 -174 104 -1 200 0 200 -147 90 c-81 50 -168 102
-193 117 l-46 27 -195 -117z m317 -143 l114 -71 -2 -340 -3 -341 -110 -68
c-60 -38 -114 -69 -118 -69 -5 0 -60 30 -123 68 l-114 67 3 345 2 345 110 67
c61 37 114 68 119 68 4 0 60 -32 122 -71z m454 -820 l0 -147 -115 -71 -115
-70 -95 57 c-111 66 -115 52 39 145 l96 58 0 144 0 143 95 -56 94 -57 1 -146z
m-970 112 l0 -138 115 -69 c63 -38 115 -72 115 -75 0 -8 -171 -112 -186 -112
-6 0 -61 31 -122 69 l-112 69 2 144 3 145 85 52 c47 29 88 53 93 53 4 1 7 -61
7 -138z"/>
<path d="M2360 3325 l0 -365 50 0 50 0 0 365 0 365 -50 0 -50 0 0 -365z"/>
<path d="M2788 3374 l-3 -316 -24 -19 c-13 -10 -36 -19 -52 -19 l-29 0 0 185
0 185 -55 0 -54 0 -3 -281 -3 -281 -32 -29 c-45 -39 -43 -53 7 -46 79 10 124
62 136 154 l6 53 55 0 c67 0 104 19 135 67 23 37 23 43 26 351 l3 312 -55 0
-55 0 -3 -316z"/>
<path d="M3010 3325 l0 -365 50 0 50 0 0 365 0 365 -50 0 -50 0 0 -365z"/>
<path d="M738 3444 c-62 -19 -112 -69 -127 -127 -6 -25 -11 -107 -11 -181 0
-131 -9 -183 -33 -198 -19 -12 -170 -9 -197 5 -41 20 -72 95 -73 179 -3 149
45 228 154 249 56 11 59 13 59 41 l0 30 -57 -7 c-70 -8 -148 -42 -187 -81 -51
-52 -69 -101 -74 -200 -7 -145 26 -225 111 -271 47 -26 277 -26 324 0 61 33
67 54 74 237 8 220 25 258 122 275 l37 7 0 -221 0 -221 689 0 689 0 6 58 c9
71 -6 146 -41 218 -32 66 -86 117 -162 153 -49 23 -68 26 -151 25 -58 0 -111
-7 -135 -16 l-40 -15 -3 -91 -3 -92 51 0 50 0 0 65 c0 75 10 85 85 85 120 0
224 -120 228 -263 l2 -62 -252 -3 -253 -2 0 37 c-1 144 -85 280 -208 336 -38
17 -66 21 -147 20 -63 0 -115 -6 -140 -15 l-40 -15 -3 -91 -3 -92 56 0 55 0 0
69 c0 78 3 81 76 81 118 0 220 -117 232 -267 l5 -63 -267 0 -266 0 0 220 0
220 -92 -1 c-51 0 -114 -7 -140 -15z"/>
<path d="M3995 3451 c-77 -19 -118 -73 -118 -156 0 -114 72 -174 211 -175 61
0 62 0 62 -27 -1 -65 -26 -73 -232 -73 -221 0 -282 10 -323 50 l-30 30 -3 146
-3 145 -52 -3 -52 -3 0 -150 c1 -163 8 -192 60 -233 43 -34 114 -42 383 -42
290 0 301 2 338 76 16 34 19 66 22 232 l3 192 -118 -1 c-65 -1 -132 -4 -148
-8z m155 -166 l0 -105 -45 0 c-83 0 -125 39 -125 117 1 64 36 92 118 93 l52 0
0 -105z"/>
<path d="M4368 3123 c-3 -230 -6 -273 -20 -299 -10 -17 -24 -34 -33 -37 -18
-8 -20 -37 -2 -37 86 0 157 79 157 176 l0 33 578 3 c569 3 578 3 617 25 78 41
115 105 115 196 0 83 -31 135 -104 172 -54 27 -68 29 -160 29 -159 -1 -146 15
-146 -190 l0 -175 -52 3 -52 3 3 47 c12 208 -179 332 -371 240 -62 -29 -137
-92 -170 -142 -16 -24 -17 -22 -17 63 l-1 87 -55 0 -55 0 0 -125 c0 -121 -1
-127 -25 -151 -20 -20 -34 -25 -63 -22 l-37 3 -3 183 -2 182 -49 0 -49 0 -4
-267z m1232 172 c51 -26 70 -61 70 -127 0 -54 -3 -63 -33 -93 -32 -32 -88 -55
-134 -55 -23 0 -23 1 -23 145 l0 145 45 0 c26 0 59 -7 75 -15z m-502 -55 c43
-26 62 -74 62 -155 l0 -65 -210 0 c-150 0 -210 3 -210 11 0 17 38 77 82 131
74 89 199 125 276 78z"/>
<path d="M900 1865 l0 -365 55 0 55 0 0 365 0 365 -55 0 -55 0 0 -365z"/>
<path d="M2670 1864 l0 -365 53 3 52 3 5 182 c5 175 6 182 29 207 37 39 88 52
134 32 59 -24 67 -55 67 -256 l0 -171 53 3 52 3 0 195 c0 167 -3 200 -18 228
-27 49 -71 72 -140 72 -65 0 -110 -16 -149 -54 l-28 -27 0 156 0 155 -55 0
-55 0 0 -366z"/>
<path d="M5350 1865 l0 -365 50 0 49 0 3 146 3 146 99 -146 c61 -90 105 -146
115 -145 9 0 33 8 54 17 l38 17 -91 122 c-49 68 -90 126 -90 131 0 4 31 46 69
92 l69 85 -41 22 c-23 12 -45 22 -49 23 -4 0 -45 -48 -90 -107 l-83 -108 -3
218 -2 217 -50 0 -50 0 0 -365z"/>
<path d="M451 2178 c-5 -13 -66 -168 -135 -346 -69 -178 -126 -325 -126 -328
0 -2 22 -4 48 -4 l48 0 35 98 36 97 133 0 133 0 32 -95 32 -95 61 -3 62 -3
-49 138 c-59 166 -187 521 -196 546 -6 13 -19 17 -56 17 -42 0 -51 -3 -58 -22z
m102 -265 l45 -143 -104 0 c-57 0 -104 3 -104 6 0 21 105 293 111 287 4 -4 27
-72 52 -150z"/>
<path d="M1370 1851 l0 -351 55 0 55 0 0 151 0 150 47 -3 47 -3 68 -145 c37
-80 69 -148 70 -151 4 -10 118 13 118 23 0 5 -34 72 -75 150 l-75 141 40 37
c50 47 73 100 72 172 0 72 -28 120 -86 151 -36 19 -60 22 -188 25 l-148 4 0
-351z m260 264 c57 -29 75 -104 43 -172 -23 -50 -66 -73 -135 -73 l-58 0 0
130 0 130 60 0 c35 0 74 -7 90 -15z"/>
<path d="M3710 1850 l0 -352 138 4 c115 3 145 8 187 26 63 29 83 48 106 97 48
103 -10 219 -119 241 -17 4 -32 10 -32 15 0 4 19 18 42 31 54 30 82 77 82 140
0 58 -24 95 -80 122 -31 16 -66 21 -181 24 l-143 5 0 -353z m249 266 c50 -26
64 -87 33 -145 -24 -45 -74 -71 -134 -71 l-48 0 0 115 0 115 60 0 c34 0 73 -6
89 -14z m31 -301 c43 -22 60 -53 60 -111 0 -91 -56 -134 -175 -134 l-65 0 0
130 0 130 75 0 c48 0 87 -6 105 -15z"/>
<path d="M2066 1999 c-40 -10 -106 -45 -106 -57 0 -4 7 -15 14 -24 12 -16 15
-16 52 2 42 22 104 26 135 10 23 -13 54 -70 42 -80 -4 -4 -47 -20 -95 -35
-138 -43 -202 -115 -184 -207 23 -123 145 -153 247 -61 l39 35 0 -41 0 -41 55
0 55 0 0 188 c0 175 -2 191 -22 232 -15 28 -35 50 -58 61 -45 22 -124 30 -174
18z m144 -256 c-1 -154 -139 -252 -180 -128 -13 41 -1 92 30 120 17 15 124 64
143 65 4 0 7 -26 7 -57z"/>
<path d="M4450 2004 c-8 -1 -31 -5 -50 -8 -19 -4 -52 -16 -73 -29 -35 -22 -36
-23 -21 -45 l15 -22 39 20 c22 11 59 20 84 20 37 0 48 -5 70 -31 41 -48 35
-62 -38 -83 -180 -51 -250 -127 -217 -236 32 -108 152 -130 245 -45 21 19 40
35 42 35 2 0 4 -18 4 -40 l0 -40 51 0 50 0 -3 204 c-3 188 -5 207 -24 233 -31
43 -119 77 -174 67z m98 -267 c-7 -78 -32 -133 -72 -158 -42 -25 -62 -24 -93
7 -22 22 -25 32 -20 71 6 56 41 93 112 122 78 31 78 30 73 -42z"/>
<path d="M4998 1998 c-20 -5 -55 -25 -77 -45 l-41 -35 0 36 0 36 -50 0 -50 0
0 -245 0 -245 50 0 50 0 0 153 c0 170 9 216 48 252 35 33 107 35 145 5 38 -30
47 -77 47 -252 l0 -158 50 0 50 0 0 193 c0 215 -11 262 -67 290 -39 20 -111
27 -155 15z"/>
<path d="M2440 1713 c0 -160 -4 -294 -10 -315 -6 -20 -22 -46 -35 -56 -37 -30
-33 -53 8 -45 60 11 97 35 120 77 21 39 22 55 25 329 l4 287 -56 0 -56 0 0
-277z"/>
<path d="M3240 1745 l0 -245 55 0 55 0 0 245 0 245 -55 0 -55 0 0 -245z"/>
</g>
</svg>
