<?xml version="1.0" standalone="no"?>
<!DOCTYPE svg PUBLIC "-//W3C//DTD SVG 20010904//EN"
 "http://www.w3.org/TR/2001/REC-SVG-20010904/DTD/svg10.dtd">
<svg version="1.0" xmlns="http://www.w3.org/2000/svg"
 width="1724.000000pt" height="752.000000pt" viewBox="0 0 1724.000000 752.000000"
 preserveAspectRatio="xMidYMid meet">
<metadata>
Created by potrace 1.15, written by Peter Selinger 2001-2017
</metadata>
<g transform="translate(0.000000,752.000000) scale(0.100000,-0.100000)"
fill="#000000" stroke="none">
<path d="M11042 6319 l-1322 -1201 0 -1237 0 -1237 1171 -1289 c644 -710 1185
-1305 1203 -1323 l32 -32 614 556 c338 306 615 560 615 564 0 4 -549 612
-1221 1351 -671 739 -1235 1360 -1252 1380 l-32 37 1346 1223 c741 673 1361
1236 1379 1251 l33 28 1229 -1352 c675 -744 1238 -1364 1250 -1379 l23 -27
-1235 -1122 c-680 -618 -1234 -1126 -1233 -1131 6 -15 1113 -1229 1119 -1226
4 1 563 508 1243 1125 l1236 1124 0 1237 0 1238 -1201 1321 -1201 1322 -1237
0 -1237 0 -1322 -1201z"/>
<path d="M4175 4171 c-9 -8 -5 -21 6 -21 5 0 8 4 5 9 -4 5 4 7 16 3 20 -5 19
-7 -12 -17 -19 -7 -38 -10 -42 -8 -5 2 -8 -1 -8 -7 0 -6 -4 -8 -10 -5 -5 3
-10 -1 -10 -10 0 -9 -4 -14 -9 -11 -5 3 -23 -1 -40 -10 -24 -12 -29 -19 -21
-29 8 -9 4 -17 -15 -29 -25 -17 -26 -40 -1 -30 7 3 13 -2 13 -10 0 -8 -4 -13
-9 -10 -4 3 -8 -2 -8 -11 0 -8 -6 -18 -13 -21 -12 -4 -14 -19 -8 -68 1 -4 8
-6 16 -3 11 5 12 1 5 -19 -6 -15 -6 -23 -1 -19 12 7 23 -10 26 -39 4 -39 6
-41 17 -16 l10 25 12 -32 c6 -18 15 -32 19 -32 5 0 11 -2 14 -5 4 -3 0 -6 -8
-6 -8 0 -1 -7 15 -15 32 -17 49 -20 26 -5 -13 9 -13 10 0 10 9 0 25 -7 38 -15
20 -14 21 -14 16 0 -8 20 1 19 23 -4 16 -17 19 -18 33 -3 13 14 12 15 -2 9
-12 -4 -15 -2 -12 8 4 10 12 11 30 5 20 -8 24 -6 24 8 0 10 3 13 8 7 12 -17
35 -17 29 -1 -3 8 2 23 11 33 9 11 13 13 8 5 -7 -9 -5 -17 5 -23 12 -8 12 -10
-1 -19 -8 -5 -10 -10 -5 -10 6 0 18 9 28 20 15 18 15 20 0 20 -19 0 -9 13 12
16 8 1 15 -2 15 -7 0 -6 5 -7 10 -4 12 7 13 55 2 55 -5 0 -9 7 -9 15 0 8 3 12
7 10 3 -2 14 5 23 16 9 10 12 19 6 19 -5 0 -7 5 -4 10 4 6 11 8 16 5 5 -4 9
-1 9 5 0 8 -9 10 -25 6 -23 -6 -24 -5 -14 12 16 25 3 80 -14 63 -9 -9 -8 -14
3 -21 8 -5 10 -10 4 -10 -6 0 -17 7 -24 15 -8 10 -9 15 -1 15 15 0 42 56 35
73 -6 17 -44 30 -44 16 0 -5 -5 -9 -11 -9 -5 0 -7 5 -3 11 4 7 -4 10 -22 7
-26 -3 -29 0 -29 28 1 17 -6 37 -14 44 -12 12 -13 10 -7 -13 4 -16 2 -27 -4
-27 -5 0 -9 5 -7 12 1 7 -2 12 -8 13 -5 0 -16 4 -24 9 -9 6 -18 4 -26 -8 -11
-15 -13 -14 -19 8 -4 17 -12 24 -27 23 -11 -1 -22 -3 -24 -6z"/>
<path d="M2870 3377 c-47 -25 -113 -108 -104 -131 3 -8 1 -17 -5 -21 -14 -8
-14 -48 0 -62 5 -5 11 -22 13 -37 1 -14 11 -33 22 -41 10 -8 14 -15 7 -15 -17
0 -4 -30 12 -30 8 0 29 -18 48 -41 34 -40 35 -40 50 -19 14 20 54 19 41 -1 -3
-5 2 -9 11 -9 9 0 13 5 10 10 -8 12 5 13 24 1 7 -5 10 -14 6 -21 -5 -9 -1 -10
16 -5 34 10 49 24 43 39 -3 8 2 16 11 20 11 4 14 2 9 -7 -5 -8 -2 -7 9 2 13
11 17 11 17 1 0 -8 3 -10 6 -7 4 4 1 13 -6 22 -10 12 -10 15 3 15 8 0 18 -6
20 -12 3 -8 6 -5 6 5 1 10 5 16 10 12 12 -7 33 29 24 39 -3 3 -1 6 5 6 7 0 12
5 12 11 0 5 -5 7 -10 4 -12 -7 -9 23 4 44 7 10 5 12 -3 6 -9 -5 -12 -2 -9 11
2 11 10 18 16 17 7 -2 12 2 12 7 0 6 -7 10 -15 10 -8 0 -15 8 -14 18 0 10 3
12 6 4 2 -6 9 -10 14 -6 5 3 0 18 -11 34 -11 15 -20 31 -20 34 0 4 -15 23 -32
43 -67 73 -175 94 -258 50z"/>
<path d="M13563 1318 l-21 -23 557 -612 c306 -336 559 -614 562 -617 3 -3 15
4 27 17 l21 22 -530 585 c-292 322 -545 600 -563 618 l-32 33 -21 -23z"/>
</g>
</svg>
