<?xml version="1.0" standalone="no"?>
<!DOCTYPE svg PUBLIC "-//W3C//DTD SVG 20010904//EN"
 "http://www.w3.org/TR/2001/REC-SVG-20010904/DTD/svg10.dtd">
<svg version="1.0" xmlns="http://www.w3.org/2000/svg"
 width="204.000000pt" height="53.000000pt" viewBox="0 0 204.000000 53.000000"
 preserveAspectRatio="xMidYMid meet">
<metadata>
Created by potrace 1.15, written by Peter Selinger 2001-2017
</metadata>
<g transform="translate(0.000000,53.000000) scale(0.100000,-0.100000)"
fill="#000000" stroke="none">
<path d="M963 382 l-63 -37 0 -80 0 -80 64 -35 c71 -38 73 -37 155 15 l41 25
0 78 0 77 -65 38 c-35 20 -65 37 -67 37 -2 -1 -31 -18 -65 -38z m113 -53 c30
-18 34 -26 34 -63 0 -39 -3 -44 -40 -65 l-40 -22 -40 22 c-37 21 -40 26 -40
65 0 37 4 45 33 62 41 26 53 26 93 1z"/>
<path d="M400 359 c0 -22 -4 -26 -19 -22 -50 13 -88 -55 -57 -102 13 -20 24
-24 61 -23 l45 1 0 87 c0 70 -3 87 -15 87 -10 0 -15 -10 -15 -28z"/>
<path d="M660 356 c0 -19 -4 -23 -20 -19 -30 8 -60 -24 -60 -63 0 -45 22 -64
76 -64 l44 0 0 85 c0 78 -2 85 -20 85 -14 0 -20 -7 -20 -24z"/>
<path d="M1580 329 c0 -8 15 -21 33 -29 20 -9 33 -24 35 -37 3 -21 0 -23 -47
-23 -39 0 -51 -4 -51 -15 0 -13 30 -15 210 -15 197 0 211 1 230 20 25 25 29
110 5 110 -10 0 -15 -10 -15 -34 0 -49 -9 -66 -34 -66 -19 0 -21 4 -18 50 3
40 1 50 -11 50 -12 0 -17 -13 -19 -47 -3 -41 -6 -48 -25 -51 -21 -3 -23 0 -23
47 0 38 -4 51 -14 51 -11 0 -16 -14 -18 -47 l-3 -48 -67 -3 c-62 -3 -68 -1
-68 17 0 11 -10 31 -22 45 -27 30 -78 46 -78 25z"/>
</g>
</svg>
