<?xml version="1.0" standalone="no"?>
<!DOCTYPE svg PUBLIC "-//W3C//DTD SVG 20010904//EN"
 "http://www.w3.org/TR/2001/REC-SVG-20010904/DTD/svg10.dtd">
<svg version="1.0" xmlns="http://www.w3.org/2000/svg"
 width="9916.000000pt" height="3566.000000pt" viewBox="0 0 9916.000000 3566.000000"
 preserveAspectRatio="xMidYMid meet">
<metadata>
Created by potrace 1.15, written by Peter Selinger 2001-2017
</metadata>
<g transform="translate(0.000000,3566.000000) scale(0.100000,-0.100000)"
fill="#000000" stroke="none">
<path d="M49175 25563 c-1273 -735 -1540 -889 -1730 -998 -88 -51 -389 -225
-670 -387 -280 -162 -832 -480 -1226 -707 l-716 -413 -6 -1291 c-4 -710 -7
-2090 -7 -3068 l0 -1777 498 -288 c273 -158 751 -434 1062 -614 311 -180 759
-438 995 -575 237 -136 525 -303 640 -370 666 -386 2102 -1214 2111 -1217 5
-2 109 54 230 123 686 396 2946 1700 3994 2304 459 265 892 514 961 554 l126
72 6 3062 c6 2880 5 3063 -11 3078 -9 9 -285 170 -612 359 -327 189 -705 407
-840 485 -1823 1055 -3833 2217 -3840 2220 -3 1 -437 -247 -965 -552z m1350
-2266 c171 -98 382 -221 470 -272 88 -51 421 -243 740 -428 319 -184 783 -452
1030 -595 l450 -260 2 -1758 3 -1759 -38 -21 c-20 -11 -453 -260 -962 -554
-1252 -722 -1174 -677 -1637 -943 l-412 -238 -488 282 c-268 155 -616 356
-773 447 -595 344 -1500 867 -1672 965 l-108 62 0 1760 1 1760 122 69 c67 39
221 127 342 197 121 70 456 263 745 429 289 167 669 386 845 488 176 101 410
237 520 300 110 63 260 150 334 193 115 66 138 76 155 67 12 -6 161 -92 331
-191z"/>
<path d="M12657 24929 c-1008 -60 -1794 -508 -2209 -1259 -174 -314 -268 -739
-239 -1080 29 -348 137 -643 337 -916 169 -231 413 -427 715 -573 351 -170
647 -252 1624 -451 662 -135 750 -155 913 -211 340 -118 535 -289 597 -526 36
-138 10 -338 -61 -473 -209 -399 -789 -617 -1539 -579 -751 38 -1275 330
-1660 924 -43 66 -79 121 -80 123 -2 2 -110 -73 -872 -606 -178 -124 -323
-230 -323 -236 0 -5 33 -53 73 -105 588 -777 1401 -1212 2474 -1328 222 -23
719 -23 938 1 1047 115 1778 505 2181 1167 283 463 385 1078 268 1608 -132
592 -533 1040 -1162 1296 -297 120 -513 171 -1602 375 -613 115 -853 183
-1065 302 -195 109 -304 245 -341 428 -68 336 209 688 667 848 368 129 869
124 1291 -14 389 -127 730 -378 1002 -736 44 -60 84 -108 87 -108 3 0 39 28
80 63 41 34 264 222 497 416 232 194 425 357 428 362 10 17 -151 214 -286 349
-540 542 -1383 886 -2305 940 -187 11 -238 11 -428 -1z"/>
<path d="M68630 21320 l0 -3580 620 0 620 0 0 3580 0 3580 -620 0 -620 0 0
-3580z"/>
<path d="M24970 23580 c0 -632 -3 -1150 -7 -1150 -3 0 -40 26 -82 58 -290 223
-555 326 -938 363 -144 14 -397 7 -548 -16 -904 -137 -1580 -803 -1824 -1795
-118 -480 -131 -1007 -36 -1475 170 -844 670 -1483 1375 -1760 378 -148 861
-174 1264 -69 272 72 518 203 718 384 36 33 69 60 72 60 3 0 6 -81 6 -180 l0
-180 630 0 630 0 0 3455 0 3455 -630 0 -630 0 0 -1150z m-898 -1921 c307 -33
557 -179 715 -416 155 -233 192 -441 179 -1013 -7 -328 -16 -435 -51 -591 -47
-213 -129 -364 -269 -496 -309 -291 -780 -360 -1174 -173 -519 247 -780 862
-676 1590 55 386 223 707 462 887 229 173 507 245 814 212z"/>
<path d="M35570 23575 l0 -1155 -96 75 c-335 263 -727 380 -1209 362 -734 -28
-1323 -358 -1727 -966 -275 -415 -429 -921 -458 -1510 -36 -729 153 -1401 532
-1893 494 -641 1260 -931 2055 -777 319 61 672 242 857 438 17 17 33 31 38 31
4 0 8 -81 8 -180 l0 -180 630 0 630 0 0 3455 0 3455 -630 0 -630 0 0 -1155z
m-901 -1915 c366 -38 645 -231 795 -551 93 -198 111 -348 103 -859 -4 -234
-11 -392 -21 -463 -50 -358 -176 -579 -420 -742 -436 -289 -1004 -225 -1371
157 -257 266 -375 599 -375 1058 0 456 125 826 362 1076 190 200 384 292 693
328 63 7 137 6 234 -4z"/>
<path d="M18365 22849 c-697 -55 -1179 -259 -1471 -622 -76 -95 -150 -215
-194 -311 -72 -160 -129 -399 -146 -608 l-7 -88 581 0 582 0 4 23 c43 238 78
321 175 417 146 144 380 210 743 210 247 0 410 -30 558 -102 202 -98 300 -275
300 -541 l0 -94 -102 -41 c-236 -92 -393 -126 -1168 -252 -659 -108 -1004
-214 -1266 -390 -173 -117 -346 -320 -437 -512 -135 -283 -179 -680 -117
-1043 57 -333 223 -632 460 -830 236 -196 529 -319 886 -371 149 -22 512 -25
664 -6 418 53 769 199 1038 432 46 40 85 71 86 69 2 -2 11 -65 20 -139 10 -74
22 -156 28 -182 l10 -48 670 0 c579 0 669 2 665 14 -46 119 -117 386 -141 531
-38 221 -39 246 -46 1730 -6 1281 -9 1484 -23 1579 -45 303 -128 478 -312 661
-170 169 -357 281 -615 366 -384 126 -955 186 -1425 148z m1122 -2996 c-5
-303 -12 -371 -53 -493 -34 -102 -83 -178 -168 -264 -112 -113 -231 -190 -391
-254 -183 -72 -334 -97 -544 -89 -217 8 -366 53 -480 146 -76 62 -96 86 -137
167 -70 139 -69 297 1 440 94 193 317 311 743 394 589 115 771 156 922 209 47
16 91 30 99 30 11 1 12 -48 8 -286z"/>
<path d="M28965 22849 c-501 -38 -913 -164 -1189 -363 -49 -36 -132 -106 -183
-157 -265 -264 -395 -571 -438 -1036 l-7 -73 586 0 586 0 0 28 c1 52 40 206
68 267 95 201 280 305 615 346 140 17 454 6 572 -19 270 -58 430 -186 491
-391 15 -50 34 -201 34 -269 0 -43 0 -43 -57 -69 -204 -90 -436 -145 -1063
-247 -735 -121 -1007 -191 -1281 -333 -363 -187 -603 -512 -689 -932 -63 -313
-39 -701 60 -972 191 -516 627 -835 1280 -936 142 -22 525 -24 670 -4 427 58
792 213 1043 442 37 34 69 60 71 58 2 -2 11 -58 20 -124 9 -66 21 -148 27
-182 l11 -63 669 0 c368 0 669 3 669 8 0 4 -14 47 -30 96 -39 116 -85 290
-105 396 -48 258 -47 239 -55 1800 -5 977 -12 1499 -19 1545 -46 296 -122 469
-283 641 -303 323 -757 491 -1473 544 -161 11 -440 11 -600 -1z m1131 -2958
c-9 -361 -31 -497 -97 -621 -119 -223 -383 -406 -706 -488 -101 -25 -122 -27
-308 -26 -173 0 -211 3 -279 22 -286 79 -437 255 -437 507 0 258 153 429 481
538 103 34 198 55 615 137 266 52 506 110 615 148 137 48 124 72 116 -217z"/>
<path d="M63450 22205 l0 -565 178 0 c294 0 607 -29 862 -80 345 -69 595 -167
841 -331 172 -115 371 -313 487 -488 265 -396 403 -894 428 -1552 l7 -179
-2006 0 -2007 0 0 -630 0 -630 2630 0 2630 0 0 708 c0 868 -12 1107 -76 1492
-187 1133 -709 1919 -1591 2401 -305 166 -753 324 -1075 378 -148 26 -503 41
-960 41 l-348 0 0 -565z"/>
<path d="M72120 22207 l0 -564 263 -6 c592 -14 1010 -97 1373 -271 400 -193
684 -480 879 -889 172 -362 256 -754 280 -1319 l7 -148 -2006 0 -2006 0 0
-630 0 -630 3388 -2 c1863 -1 5527 -1 8142 1 5199 3 4850 -1 5100 62 342 86
614 238 874 489 401 387 628 886 733 1612 15 99 17 281 20 1486 l4 1372 -625
0 -625 0 -4 -1417 c-3 -1398 -4 -1420 -25 -1528 -79 -411 -250 -649 -542 -756
-157 -57 -189 -59 -911 -59 l-659 0 34 49 c95 138 156 381 197 781 8 81 13
536 16 1523 l4 1407 -625 0 -625 0 -4 -1397 c-3 -1247 -6 -1408 -20 -1493 -56
-316 -132 -486 -287 -641 -71 -71 -102 -94 -181 -133 -189 -93 -160 -90 -926
-94 l-673 -3 0 36 c0 20 12 59 26 88 78 153 129 401 154 742 6 84 10 693 10
1515 l1 1375 -623 0 -623 0 -2 -1240 c-2 -1400 -4 -1493 -33 -1660 -80 -466
-281 -726 -638 -828 l-77 -22 -2356 -3 -2357 -2 -6 127 c-31 663 -94 1047
-241 1488 -303 910 -906 1546 -1800 1898 -259 102 -525 179 -727 212 -128 20
-510 35 -935 35 l-343 0 0 -563z"/>
<path d="M75560 9706 c0 -149 2 -175 16 -180 9 -3 76 -6 150 -6 l134 0 0 180
0 180 -150 0 -150 0 0 -174z"/>
<path d="M47975 9844 c-61 -10 -151 -45 -196 -78 -140 -103 -196 -336 -133
-548 5 -16 -4 -18 -101 -18 l-106 0 3 -102 3 -103 498 -3 497 -2 0 105 0 105
-279 0 -279 0 -23 53 c-18 42 -23 70 -23 142 0 188 66 275 209 275 97 0 173
-60 191 -149 7 -32 8 -33 48 -27 23 3 69 8 104 12 34 4 62 7 62 8 0 0 -7 23
-15 49 -39 128 -122 221 -228 256 -63 20 -178 33 -232 25z"/>
<path d="M40140 9640 l0 -180 150 0 150 0 0 180 0 180 -150 0 -150 0 0 -180z"/>
<path d="M40690 9640 l0 -180 150 0 150 0 0 180 0 180 -150 0 -150 0 0 -180z"/>
<path d="M67080 9640 l0 -180 150 0 150 0 0 180 0 180 -150 0 -150 0 0 -180z"/>
<path d="M67630 9640 l0 -180 150 0 150 0 0 180 0 180 -150 0 -150 0 0 -180z"/>
<path d="M43910 8628 c-1 -1136 -5 -1210 -73 -1341 -35 -67 -71 -101 -142
-133 -86 -39 -152 -44 -570 -37 l-392 6 19 50 c51 134 51 136 55 880 l4 698
-148 -3 -148 -3 -5 -650 c-6 -711 -6 -705 -67 -818 -32 -58 -70 -92 -139 -123
-77 -36 -179 -45 -441 -41 -204 4 -247 7 -300 25 -88 28 -139 61 -206 131 -64
67 -105 145 -139 266 -22 79 -23 87 -26 848 l-3 767 -485 0 c-404 0 -498 -3
-562 -16 -338 -70 -568 -347 -637 -769 -20 -120 -19 -356 1 -476 65 -387 290
-678 585 -755 147 -39 383 -12 536 62 73 35 191 137 241 209 19 28 21 29 28
10 56 -164 121 -272 224 -376 99 -99 196 -154 340 -192 l85 -22 1080 0 c1001
0 1085 1 1145 18 211 57 335 190 402 432 l23 80 3 1108 3 1107 -146 0 -145 0
0 -942z m-3025 -143 c-1 -299 -5 -467 -13 -525 -35 -232 -95 -383 -191 -479
-98 -98 -206 -136 -365 -129 -76 3 -102 9 -156 34 -114 54 -201 142 -269 274
-181 349 -132 858 106 1110 66 70 132 112 222 141 49 16 92 18 361 16 l305 -2
0 -440z"/>
<path d="M61520 8195 l0 -1375 145 0 145 0 0 1375 0 1375 -145 0 -145 0 0
-1375z"/>
<path d="M69927 9518 c-61 -107 -607 -1087 -613 -1102 -6 -15 36 -16 473 -16
271 0 515 -5 563 -10 415 -51 703 -290 815 -676 39 -133 55 -261 55 -437 l0
-157 -1347 2 -1348 3 -57 23 c-171 69 -281 219 -324 440 -11 60 -14 217 -14
818 l0 745 -522 -3 -523 -3 -77 -26 c-298 -102 -488 -349 -564 -735 -27 -136
-24 -396 5 -534 27 -129 73 -252 132 -356 51 -92 196 -245 273 -289 127 -74
270 -102 427 -85 240 26 399 112 516 276 l29 42 28 -78 c109 -306 332 -489
648 -530 57 -7 556 -10 1578 -8 l1495 3 3 195 c7 460 -39 729 -168 979 -180
349 -492 580 -897 662 -92 19 -154 23 -411 28 l-302 6 223 385 c123 212 236
406 251 433 l28 47 -175 0 -175 0 -25 -42z m-2107 -1025 c0 -561 -13 -670
-101 -860 -85 -185 -235 -283 -435 -283 -161 0 -285 65 -391 204 -102 135
-161 318 -170 528 -19 431 165 768 457 838 19 4 171 8 338 9 l302 1 0 -437z"/>
<path d="M22680 9230 l0 -181 148 3 147 3 3 178 2 177 -150 0 -150 0 0 -180z"/>
<path d="M23232 9233 l3 -178 148 -3 147 -3 0 181 0 180 -150 0 -150 0 2 -177z"/>
<path d="M63130 9230 l0 -180 150 0 150 0 0 180 0 180 -150 0 -150 0 0 -180z"/>
<path d="M75292 9233 l3 -178 148 -3 147 -3 0 181 0 180 -150 0 -150 0 2 -177z"/>
<path d="M75850 9230 l0 -180 150 0 150 0 0 180 0 180 -150 0 -150 0 0 -180z"/>
<path d="M58750 8930 l0 -180 150 0 150 0 0 180 0 180 -150 0 -150 0 0 -180z"/>
<path d="M59310 8930 l0 -181 148 3 147 3 3 178 2 177 -150 0 -150 0 0 -180z"/>
<path d="M22903 8766 c-192 -37 -328 -111 -458 -247 -200 -211 -273 -427 -262
-772 6 -185 30 -299 91 -432 85 -184 241 -340 420 -419 187 -83 470 -97 676
-34 154 47 314 159 408 284 141 188 205 391 205 654 0 221 -34 378 -119 539
-111 210 -289 352 -519 412 -104 27 -337 35 -442 15z m329 -247 c137 -29 266
-126 327 -246 120 -239 118 -681 -5 -931 -86 -177 -254 -272 -480 -272 -82 0
-207 33 -272 73 -115 69 -208 206 -254 372 -19 69 -22 107 -22 270 0 165 3
202 22 280 67 266 205 408 447 459 42 8 186 6 237 -5z"/>
<path d="M27820 8749 c-431 -64 -720 -506 -671 -1026 15 -154 44 -262 106
-388 86 -174 200 -291 360 -369 115 -57 204 -76 348 -76 201 0 325 47 433 163
l57 62 -6 -95 c-18 -265 -126 -464 -298 -549 -69 -34 -178 -61 -246 -61 l-43
0 0 -140 0 -140 44 0 c25 0 94 9 153 21 359 69 558 257 648 613 37 149 45 270
45 719 0 475 -7 554 -64 719 -134 391 -473 606 -866 547z m213 -264 c256 -54
427 -321 427 -669 0 -370 -187 -637 -464 -663 -176 -16 -348 78 -449 244 -20
32 -51 102 -69 154 -32 93 -33 97 -33 274 0 205 10 254 76 393 51 106 131 190
222 232 106 50 179 59 290 35z"/>
<path d="M45538 8750 c-430 -73 -702 -472 -675 -990 17 -308 149 -580 352
-725 146 -105 274 -145 457 -146 223 0 372 62 471 195 l30 41 -7 -93 c-20
-273 -129 -477 -301 -561 -71 -35 -175 -61 -247 -61 l-48 0 0 -140 0 -140 44
0 c51 0 201 25 267 44 302 90 482 298 553 643 30 140 38 332 33 750 -5 431 -9
473 -58 623 -78 235 -251 431 -455 514 -121 49 -287 68 -416 46z m198 -261
c276 -50 460 -352 441 -724 -11 -203 -73 -361 -188 -478 -78 -78 -146 -114
-249 -130 -255 -39 -479 140 -561 448 -31 117 -32 325 -1 450 33 130 84 227
163 307 111 114 241 155 395 127z"/>
<path d="M25068 8745 c-9 -10 -11 -236 -2 -259 5 -13 23 -16 89 -16 172 0 381
-58 520 -145 296 -184 470 -559 492 -1062 l6 -143 -786 0 -787 0 0 -150 0
-150 938 0 c516 0 941 2 943 4 2 2 1 98 -3 213 -7 236 -27 420 -63 600 -128
630 -469 989 -1035 1089 -101 18 -302 30 -312 19z"/>
<path d="M29742 8614 l3 -139 125 -7 c132 -7 234 -29 347 -74 356 -143 571
-494 622 -1018 6 -60 11 -142 11 -183 l0 -73 -785 0 -785 0 0 -150 0 -150
3263 0 3263 0 51 -63 c164 -204 377 -299 678 -301 267 -1 446 68 613 235 170
171 258 385 269 660 24 554 -241 935 -701 1010 -48 7 -128 10 -219 6 -162 -6
-272 -32 -389 -94 -200 -105 -359 -319 -424 -569 -34 -134 -43 -339 -20 -472
9 -50 16 -97 16 -102 0 -7 -178 -10 -514 -10 l-513 0 -6 178 c-10 327 -76 567
-218 800 -67 108 -251 296 -359 367 -141 92 -299 155 -490 196 -91 20 -135 23
-325 23 -249 1 -341 -12 -512 -69 -189 -63 -333 -152 -466 -288 l-78 -79 128
-132 c124 -128 129 -132 143 -112 144 198 296 307 508 363 88 24 114 26 282
27 153 0 201 -4 276 -21 413 -96 653 -357 739 -803 19 -98 31 -335 21 -403
l-7 -47 -1568 0 -1568 0 -6 113 c-17 316 -94 625 -214 860 -208 406 -571 627
-1076 654 l-118 6 3 -139z m6940 -515 c133 -28 255 -124 315 -250 89 -182 107
-505 42 -740 -71 -258 -235 -388 -491 -389 -268 0 -444 144 -520 425 -32 119
-32 382 0 510 60 237 198 393 388 439 72 18 195 20 266 5z"/>
<path d="M47860 8743 c-364 -61 -638 -351 -715 -756 -19 -102 -19 -309 0 -420
53 -304 230 -557 469 -672 133 -63 161 -67 489 -72 l299 -5 -6 -26 c-15 -64
-87 -190 -137 -240 -84 -85 -229 -141 -361 -142 l-48 0 0 -141 0 -142 73 6
c193 17 399 96 524 203 107 91 201 249 241 404 l19 75 2606 3 2606 2 30 -43
c43 -64 151 -160 230 -207 140 -84 348 -128 534 -116 322 22 566 185 711 473
161 322 133 812 -62 1100 -50 73 -171 188 -245 232 -69 41 -199 86 -287 100
-84 14 -280 14 -356 0 -344 -60 -595 -303 -685 -661 -36 -145 -37 -388 -3
-550 l6 -28 -630 0 -630 0 24 66 c51 140 54 185 54 900 l0 664 -144 0 -145 0
-4 -632 c-4 -677 -5 -699 -57 -815 -29 -66 -93 -129 -160 -155 -52 -22 -71
-23 -382 -26 -181 -2 -328 -1 -328 1 0 2 9 30 20 63 47 135 50 186 50 872 0
356 0 657 0 670 0 22 -1 22 -144 22 l-145 0 -4 -642 c-3 -567 -6 -652 -21
-717 -23 -96 -54 -158 -105 -204 -69 -62 -102 -67 -469 -67 -305 0 -324 1
-317 18 4 9 19 60 33 112 l27 95 3 703 3 703 -148 -3 -148 -3 -5 -630 c-5
-626 -6 -630 -29 -695 -12 -36 -33 -83 -46 -105 -30 -51 -100 -122 -145 -145
-87 -45 -124 -48 -602 -55 l-457 -7 -4 498 c-4 545 -5 552 -67 712 -31 80 -86
169 -144 231 -81 88 -246 167 -396 191 -63 10 -219 12 -270 3z m274 -295 c132
-44 234 -145 278 -276 22 -65 23 -81 26 -558 l3 -491 -249 -7 c-358 -11 -427
6 -557 138 -81 82 -141 191 -176 321 -32 119 -33 330 -1 439 68 235 237 417
422 455 62 13 183 3 254 -21z m6669 -353 c177 -46 301 -180 352 -379 40 -158
39 -417 -1 -584 -54 -219 -186 -362 -372 -401 -122 -25 -282 -7 -384 45 -128
65 -230 220 -269 409 -28 133 -23 368 10 489 65 235 207 385 406 426 66 13
197 11 258 -5z"/>
<path d="M57590 8373 c0 -406 9 -564 42 -713 100 -467 378 -727 873 -817 131
-24 1619 -32 1750 -9 232 40 384 185 445 424 33 132 41 318 38 922 l-3 565
-147 3 -148 3 0 -578 c0 -709 -7 -787 -83 -914 -37 -62 -109 -111 -189 -128
-32 -7 -303 -11 -781 -11 -790 0 -833 2 -984 54 -121 41 -192 85 -278 171 -66
65 -89 97 -127 175 -94 191 -108 297 -108 821 l0 409 -150 0 -150 0 0 -377z"/>
<path d="M62940 8612 l0 -142 84 0 c238 0 480 -88 641 -233 235 -212 357 -542
378 -1024 l4 -93 -783 0 -784 0 0 -150 0 -150 940 0 940 0 0 68 c0 214 -33
559 -70 743 -143 704 -557 1079 -1231 1116 l-119 6 0 -141z"/>
<path d="M72697 7838 c-4 -1023 -1 -985 -77 -1146 -48 -102 -118 -175 -210
-220 -72 -35 -179 -62 -252 -62 l-48 0 0 -141 0 -142 80 7 c153 13 341 75 448
148 109 74 187 165 246 284 37 76 76 193 76 230 l0 24 1783 2 c1669 3 1786 4
1842 21 212 62 333 191 397 422 22 79 22 93 26 783 l3 703 -148 -3 -148 -3 -6
-650 c-5 -584 -7 -656 -23 -710 -44 -148 -109 -218 -233 -250 -45 -12 -125
-15 -364 -15 l-307 0 19 51 c52 136 52 137 56 882 l4 698 -148 -3 -148 -3 -5
-660 c-5 -582 -8 -667 -23 -718 -36 -122 -83 -186 -166 -225 -31 -14 -83 -17
-380 -20 l-344 -3 6 23 c3 13 14 55 25 93 37 133 42 229 42 883 l0 633 -147
-3 -148 -3 -6 -600 c-4 -518 -7 -609 -22 -662 -44 -163 -120 -269 -236 -326
l-66 -32 -547 -3 -548 -3 -2 813 -3 813 -147 3 -147 3 -4 -913z"/>
<path d="M41960 6350 l0 -180 150 0 150 0 0 180 0 180 -150 0 -150 0 0 -180z"/>
<path d="M42512 6353 l3 -178 148 -3 147 -3 0 181 0 180 -150 0 -150 0 2 -177z"/>
</g>
</svg>
