<svg width="42" height="48" viewBox="0 0 42 48" fill="none" xmlns="http://www.w3.org/2000/svg">
<foreignObject x="-28.7847" y="-28.0718" width="99.5693" height="104.144"><div xmlns="http://www.w3.org/1999/xhtml" style="backdrop-filter:blur(14.5px);clip-path:url(#bgblur_0_3481_41438_clip_path);height:100%;width:100%"></div></foreignObject><path data-figma-bg-blur-radius="29" d="M18 1.73205C19.8564 0.660254 22.1436 0.660254 24 1.73205L38.7846 10.2679C40.641 11.3397 41.7846 13.3205 41.7846 15.4641V32.5359C41.7846 34.6795 40.641 36.6603 38.7846 37.7321L24 46.2679C22.1436 47.3397 19.8564 47.3397 18 46.2679L3.21539 37.7321C1.35899 36.6603 0.215391 34.6795 0.215391 32.5359V15.4641C0.215391 13.3205 1.35898 11.3397 3.21539 10.2679L18 1.73205Z" fill="#FCF5EC"/>
<defs>
<clipPath id="bgblur_0_3481_41438_clip_path" transform="translate(28.7847 28.0718)"><path d="M18 1.73205C19.8564 0.660254 22.1436 0.660254 24 1.73205L38.7846 10.2679C40.641 11.3397 41.7846 13.3205 41.7846 15.4641V32.5359C41.7846 34.6795 40.641 36.6603 38.7846 37.7321L24 46.2679C22.1436 47.3397 19.8564 47.3397 18 46.2679L3.21539 37.7321C1.35899 36.6603 0.215391 34.6795 0.215391 32.5359V15.4641C0.215391 13.3205 1.35898 11.3397 3.21539 10.2679L18 1.73205Z"/>
</clipPath></defs>
</svg>
