<svg width="138" height="120" viewBox="0 0 138 120" fill="none" xmlns="http://www.w3.org/2000/svg">
<path fill-rule="evenodd" clip-rule="evenodd" d="M71.9807 36.4345L87.5578 45.2925C89.7428 46.5367 90.9859 48.6537 90.9859 51.1421V68.8579C90.9859 71.3278 89.7428 73.4633 87.5578 74.7075L71.9807 83.5655C69.7958 84.8097 67.3094 84.8097 65.1245 83.5655L49.5662 74.7075C47.3812 73.4633 46.1381 71.3463 46.1381 68.8579V51.1421C46.1381 48.6537 47.3812 46.5367 49.5662 45.2925L65.1245 36.4345C67.3094 35.1903 69.7958 35.1903 71.9807 36.4345ZM96.8062 37.493L73.5629 24.2711L68.5526 21.4113L57.0816 14.8747L42.8418 6.77809C37.3041 3.62117 30.1842 5.51532 27.001 10.9564L1.55395 54.429C-0.517982 57.9759 -0.517982 62.0241 1.55395 65.571L30.1654 114.429C32.2373 117.976 35.7973 120 39.96 120H70.455C72.0184 120 73.3557 118.997 73.7701 117.493C74.1845 115.989 73.5441 114.466 72.1691 113.686L68.5714 111.643L29.0164 89.1365C25.3058 87.0381 23.1962 83.4169 23.1962 79.2015V40.7985C23.1962 36.5831 25.3246 32.9619 29.0164 30.8635L42.8795 22.9712C46.5713 20.8728 51.6193 23.7326 51.6193 27.948C51.6193 29.935 50.621 31.6435 48.8881 32.6277L40.3367 37.493C36.7391 39.5357 34.686 43.0455 34.686 47.1495V72.8691C34.686 76.9545 36.7391 80.4642 40.3367 82.5255C53.5782 90.065 66.8197 97.6045 80.0612 105.144L94.301 113.24C99.8387 116.397 106.94 114.503 110.142 109.062L135.589 65.5896C137.661 62.0427 137.661 57.9944 135.589 54.4475L106.959 5.57103C104.887 2.02414 101.327 0 97.164 0H66.669C65.0868 0 63.7683 1.00279 63.3539 2.50696C62.9395 4.01114 63.58 5.53389 64.955 6.31383L68.5526 8.35655L108.108 30.8635C111.818 32.9805 113.928 36.5831 113.928 40.7985V79.2015C113.928 83.4169 111.799 87.0381 108.108 89.1365L94.2445 97.0288C90.5527 99.1272 85.5047 96.2674 85.5047 92.052C85.5047 90.065 86.503 88.3565 88.2548 87.3723L96.8062 82.507C100.404 80.4642 102.457 76.9545 102.457 72.8505V47.1309C102.457 43.0455 100.404 39.5357 96.8062 37.4745V37.493Z" fill="white"/>
</svg>
