<svg width="149" height="29" viewBox="0 0 149 29" fill="none" xmlns="http://www.w3.org/2000/svg">
<g clip-path="url(#clip0_3481_43139)">
<path fill-rule="evenodd" clip-rule="evenodd" d="M128.682 8.54772L132.346 10.6258C132.86 10.9177 133.152 11.4144 133.152 11.9982V16.1544C133.152 16.7338 132.86 17.2349 132.346 17.5268L128.682 19.6049C128.168 19.8968 127.583 19.8968 127.069 19.6049L123.41 17.5268C122.896 17.2349 122.604 16.7382 122.604 16.1544V11.9982C122.604 11.4144 122.896 10.9177 123.41 10.6258L127.069 8.54772C127.583 8.25583 128.168 8.25583 128.682 8.54772ZM134.521 8.79605L129.054 5.69413L127.876 5.0232L125.178 3.48967L121.828 1.59017C120.526 0.849544 118.851 1.29392 118.103 2.57042L112.117 12.7693C111.63 13.6014 111.63 14.5512 112.117 15.3833L118.847 26.8456C119.334 27.6777 120.171 28.1526 121.151 28.1526H128.323C128.691 28.1526 129.005 27.9173 129.103 27.5644C129.2 27.2116 129.05 26.8543 128.726 26.6713L127.88 26.1921L118.577 20.9119C117.704 20.4196 117.208 19.57 117.208 18.5811V9.57153C117.208 8.58258 117.708 7.73303 118.577 7.24073L121.837 5.38916C122.706 4.89686 123.893 5.56778 123.893 6.55674C123.893 7.0229 123.658 7.42371 123.25 7.65461L121.239 8.79605C120.393 9.27528 119.91 10.0987 119.91 11.0615V17.0954C119.91 18.0539 120.393 18.8773 121.239 19.3609C124.354 21.1297 127.468 22.8985 130.583 24.6673L133.932 26.5668C135.234 27.3074 136.905 26.863 137.658 25.5865L143.643 15.3876C144.13 14.5555 144.13 13.6058 143.643 12.7737L136.909 1.30699C136.422 0.474874 135.584 0 134.605 0H127.433C127.061 0 126.75 0.235258 126.653 0.588146C126.555 0.941034 126.706 1.29828 127.03 1.48126L127.876 1.96049L137.179 7.24073C138.052 7.73739 138.548 8.58258 138.548 9.57153V18.5811C138.548 19.57 138.048 20.4196 137.179 20.9119L133.919 22.7634C133.05 23.2557 131.863 22.5848 131.863 21.5959C131.863 21.1297 132.098 20.7289 132.51 20.498L134.521 19.3565C135.367 18.8773 135.85 18.0539 135.85 17.0911V11.0571C135.85 10.0987 135.367 9.27528 134.521 8.7917V8.79605Z" fill="#F29840"/>
<path fill-rule="evenodd" clip-rule="evenodd" d="M131.106 13.3486C131.106 12.6515 130.747 12.0416 130.136 11.6931L128.851 10.9655C128.239 10.617 127.517 10.617 126.906 10.9655L125.621 11.6931C125.01 12.0416 124.651 12.6515 124.651 13.3486V14.8081C124.651 15.5051 125.01 16.1194 125.621 16.4636L126.906 17.1911C127.517 17.5397 128.239 17.5397 128.851 17.1911L130.136 16.4636C130.747 16.115 131.11 15.5051 131.11 14.8081V13.3486H131.106ZM128.142 12.1679L129.427 12.8955C129.604 12.9957 129.693 13.1482 129.693 13.3486V14.8081C129.693 15.0085 129.604 15.1609 129.427 15.2611L128.142 15.9887C127.965 16.0889 127.788 16.0889 127.61 15.9887L126.326 15.2611C126.148 15.1609 126.06 15.0085 126.06 14.8081V13.3486C126.06 13.1482 126.153 12.9957 126.326 12.8955L127.61 12.1679C127.788 12.0677 127.965 12.0677 128.142 12.1679Z" fill="white"/>
<path fill-rule="evenodd" clip-rule="evenodd" d="M58.1537 6.22129C58.1537 6.22129 58.1182 6.22129 58.1005 6.22129H57.1259C56.3018 5.25847 55.9961 3.68572 56.7714 2.78825C57.3429 2.12605 58.3929 1.90821 59.2037 2.21753C61.0555 2.9146 60.9669 6.20386 58.1537 6.22129ZM70.3015 6.22129C69.8319 6.26921 69.3401 6.27792 68.8794 6.22129C67.7452 6.08187 66.775 5.54165 66.6377 4.19981C66.5092 2.96252 67.7497 1.95178 68.9636 2.1609C69.8585 2.31338 70.3104 3.22827 70.3015 4.39585V6.22564V6.22129ZM72.4945 8.22534H75.1394C76.2646 8.22534 77.0488 7.87681 77.4918 7.17975C77.9038 7.77225 78.626 8.10771 79.4279 8.22534C79.8753 8.29069 80.3538 8.28633 80.8145 8.22534C81.6651 8.10771 82.4715 7.78968 82.9898 7.31045C83.5214 7.81582 84.2303 8.12078 84.9746 8.22534C85.3733 8.28197 85.7809 8.28197 86.184 8.22534C87.3846 8.05543 88.5011 7.38451 88.9795 6.22129C89.1124 5.89889 89.1966 5.53729 89.2188 5.13648V0.34418H86.9903V4.78795C86.9903 5.5765 86.3347 6.21693 85.5372 6.21693H85.267C84.4651 6.21693 83.8138 5.57215 83.8138 4.78795V1.72523H81.5854V4.79231C81.5854 5.58086 80.9297 6.22129 80.1323 6.22129H79.862C79.0601 6.22129 78.4089 5.5765 78.4089 4.79231V1.72523H76.1805V4.79231C76.1805 5.58086 75.5248 6.22129 74.7273 6.22129H72.5609V4.14317C72.5609 2.47022 71.892 1.19372 70.7224 0.527159C69.0743 -0.413875 66.9079 -0.047917 65.5744 1.25907C64.1922 2.60963 63.9928 4.67904 64.7991 6.19079C64.9054 6.39119 65.0339 6.58289 65.1801 6.76151C66.4472 8.31683 68.4009 8.22534 70.2129 8.22534C69.9161 9.5149 68.4541 9.70224 67.3421 9.70224H65.8491V11.7194H67.7186C70.0578 11.7194 72.0692 10.6433 72.5033 8.22098L72.4945 8.22534ZM101.903 6.22129C101.557 6.22129 101.216 6.22129 100.87 6.22129C100.046 5.25847 99.7407 3.68572 100.516 2.78825C101.087 2.12605 102.137 1.90821 102.948 2.21753C104.8 2.9146 104.711 6.20386 101.898 6.22129H101.903ZM94.5262 5.13648V0.34418H92.2978V6.22129C92.2978 6.80507 92.2978 7.52392 92.1605 8.11207C91.8946 9.27529 91.0263 9.62382 89.8789 9.69788L90.1934 11.7934C92.7142 11.4754 94.0743 10.408 94.5262 8.22098H101.845C102.895 8.17306 103.763 7.97265 104.454 7.62848C106.656 6.52625 106.851 3.75978 105.704 1.80801C104.459 -0.313672 101.46 -0.361595 99.5546 0.845194C97.7426 1.99099 97.2331 4.19109 98.5046 6.21693H94.5218V5.13213L94.5262 5.13648ZM51.3798 8.22098C51.3089 8.46495 51.269 8.72635 51.269 8.99211V13.0873H53.4975V9.3145C53.4975 8.71328 53.9981 8.22098 54.6095 8.22098H58.0961C59.1461 8.17306 60.0144 7.97265 60.7011 7.62848C62.9029 6.52625 63.0979 3.75978 61.9504 1.80801C60.7055 -0.313672 57.7062 -0.361595 55.8012 0.845194C53.9892 1.99099 53.4797 4.19109 54.7512 6.21693H54.0823C52.8019 6.21693 51.7165 7.06647 51.3709 8.22098H51.3798Z" fill="white"/>
<path d="M105.177 15.078H102.886L97.9374 23.9176L93.0066 15.078H90.6984V27.8691H93.2591V20.9029L97.1621 27.8691H98.7349L102.616 20.9029V27.8691H105.177V15.078ZM81.5632 25.7126C80.3847 25.7126 79.3923 25.3118 78.5816 24.5101C77.7708 23.7085 77.3677 22.7021 77.3677 21.4954C77.3677 20.2886 77.7708 19.2735 78.5816 18.4588C79.3923 17.6441 80.3847 17.2389 81.5632 17.2389C82.7416 17.2389 83.734 17.6484 84.5447 18.4588C85.3555 19.2735 85.7586 20.2842 85.7586 21.4954C85.7586 22.7065 85.3555 23.7085 84.5447 24.5101C83.734 25.3118 82.7416 25.7126 81.5632 25.7126ZM81.5632 14.7948C79.6493 14.7948 78.0278 15.444 76.6987 16.7423C75.3741 18.0405 74.7095 19.6264 74.7095 21.4954C74.7095 23.3644 75.3741 24.9284 76.6987 26.2179C78.0278 27.5119 79.6448 28.1567 81.5632 28.1567C83.4815 28.1567 85.0985 27.5119 86.4276 26.2179C87.7523 24.9284 88.4168 23.3513 88.4168 21.4954C88.4168 19.6394 87.7523 18.0405 86.4276 16.7423C85.1029 15.444 83.4815 14.7948 81.5632 14.7948ZM66.1591 25.7126C64.9807 25.7126 63.9883 25.3118 63.1775 24.5101C62.3668 23.7085 61.9636 22.7021 61.9636 21.4954C61.9636 20.2886 62.3668 19.2735 63.1775 18.4588C63.9883 17.6441 64.9807 17.2389 66.1591 17.2389C67.3376 17.2389 68.3299 17.6484 69.1407 18.4588C69.9514 19.2735 70.3546 20.2842 70.3546 21.4954C70.3546 22.7065 69.9514 23.7085 69.1407 24.5101C68.3299 25.3118 67.3376 25.7126 66.1591 25.7126ZM66.1591 14.7948C64.2452 14.7948 62.6237 15.444 61.2947 16.7423C59.9656 18.0405 59.3055 19.6264 59.3055 21.4954C59.3055 23.3644 59.97 24.9284 61.2947 26.2179C62.6193 27.5119 64.2408 28.1567 66.1591 28.1567C68.0774 28.1567 69.6945 27.5119 71.0235 26.2179C72.3482 24.9284 73.0127 23.3513 73.0127 21.4954C73.0127 19.6394 72.3482 18.0405 71.0235 16.7423C69.6989 15.444 68.0774 14.7948 66.1591 14.7948ZM52.1904 14.7948C50.6753 14.7948 49.4703 15.1564 48.5798 15.8753C47.6849 16.5941 47.2418 17.5308 47.2418 18.6897C47.2418 20.6632 48.3804 21.8831 50.6576 22.3536L53.4132 22.8677C53.9714 22.981 54.3613 23.1465 54.5872 23.3644C54.8132 23.5822 54.9284 23.8784 54.9284 24.2618C54.9284 24.7323 54.729 25.1201 54.3258 25.425C53.9227 25.73 53.3556 25.8825 52.6158 25.8825C51.012 25.8825 50.0418 25.1898 49.7051 23.8L46.9273 24.3533C47.0823 25.5732 47.6671 26.5142 48.6817 27.1677C49.6962 27.8212 50.9234 28.1523 52.3588 28.1523C53.9138 28.1523 55.1587 27.7907 56.1068 27.0631C57.0505 26.3399 57.5245 25.3597 57.5245 24.1224C57.5245 23.1422 57.2232 22.3449 56.6207 21.7263C56.0182 21.1076 55.1809 20.685 54.1088 20.4585L51.3133 19.9052C50.4449 19.7396 50.0108 19.3083 50.0108 18.6069C50.0108 18.1625 50.2057 17.7879 50.5911 17.4785C50.981 17.1736 51.4905 17.0211 52.124 17.0211C52.7575 17.0211 53.3556 17.2041 53.8341 17.5657C54.3126 17.9273 54.5961 18.4109 54.6891 19.0077L57.3296 18.4718C57.0859 17.3391 56.4967 16.4417 55.5619 15.7794C54.6315 15.1172 53.5018 14.7861 52.186 14.7861L52.1904 14.7948ZM36.9237 20.8288V17.4306H40.5167C41.1236 17.4306 41.6154 17.5875 41.992 17.8968C42.3685 18.2105 42.5546 18.62 42.5546 19.1297C42.5546 19.6394 42.3685 20.049 41.992 20.3626C41.6154 20.672 41.1236 20.8288 40.5167 20.8288H36.9237ZM45.8153 27.8735L41.447 23.1204C42.5856 22.9548 43.4938 22.5148 44.1628 21.8047C44.8362 21.0902 45.1729 20.2014 45.1729 19.1341C45.1729 17.9229 44.7476 16.947 43.8926 16.202C43.0375 15.4571 41.9122 15.0867 40.5167 15.0867H34.2833V27.8778H36.9237V23.1814H38.3015L42.59 27.8778H45.8109L45.8153 27.8735ZM27.8107 22.7936H24.0272L25.9278 18.2322L27.8107 22.7936ZM32.7814 27.8735L27.1506 15.0824H24.6829L19.052 27.8735H21.9051L23.0481 25.1419H28.7942L29.9195 27.8735H32.7726H32.7814ZM17.5502 15.0824H15.2597L10.3111 23.922L5.38019 15.0824H3.07202V27.8735H5.63272V20.9072L9.53579 27.8735H11.1085L14.9895 20.9072V27.8735H17.5502V15.0824Z" fill="white"/>
</g>
<defs>
<clipPath id="clip0_3481_43139">
<rect width="149" height="28.1569" fill="white"/>
</clipPath>
</defs>
</svg>
