<svg width="204" height="39" viewBox="0 0 204 39" fill="none" xmlns="http://www.w3.org/2000/svg">
<g clip-path="url(#clip0_3481_17692)">
<path fill-rule="evenodd" clip-rule="evenodd" d="M176.182 11.7029L181.198 14.5481C181.902 14.9478 182.302 15.6278 182.302 16.427V22.1175C182.302 22.9108 181.902 23.5967 181.198 23.9964L176.182 26.8416C175.479 27.2412 174.678 27.2412 173.974 26.8416L168.964 23.9964C168.26 23.5967 167.86 22.9167 167.86 22.1175V16.427C167.86 15.6278 168.26 14.9478 168.964 14.5481L173.974 11.7029C174.678 11.3033 175.479 11.3033 176.182 11.7029ZM184.177 12.0429L176.692 7.79598L175.078 6.87741L171.384 4.7778L166.799 2.17715C165.015 1.16313 162.723 1.77154 161.697 3.51923L153.503 17.4828C152.836 18.6221 152.836 19.9224 153.503 21.0617L162.717 36.7551C163.384 37.8943 164.53 38.5445 165.871 38.5445H175.691C176.194 38.5445 176.625 38.2224 176.758 37.7392C176.892 37.2561 176.686 36.767 176.243 36.5165L175.084 35.8603L162.347 28.631C161.152 27.957 160.472 26.7939 160.472 25.4398V13.1046C160.472 11.7506 161.158 10.5875 162.347 9.91349L166.811 7.37845C168 6.70443 169.625 7.62301 169.625 8.97701C169.625 9.61525 169.304 10.164 168.746 10.4801L165.992 12.0429C164.833 12.699 164.172 13.8264 164.172 15.1446V23.4058C164.172 24.7181 164.833 25.8454 165.992 26.5075C170.256 28.9292 174.52 31.351 178.784 33.7727L183.37 36.3733C185.153 37.3873 187.44 36.7789 188.471 35.0312L196.666 21.0676C197.333 19.9284 197.333 18.628 196.666 17.4888L187.446 1.78944C186.779 0.650162 185.632 0 184.292 0H174.472C173.962 0 173.538 0.322099 173.404 0.805247C173.271 1.2884 173.477 1.77751 173.92 2.02803L175.078 2.68416L187.816 9.91349C189.011 10.5935 189.69 11.7506 189.69 13.1046V25.4398C189.69 26.7939 189.005 27.957 187.816 28.631L183.352 31.166C182.163 31.8401 180.537 30.9215 180.537 29.5675C180.537 28.9292 180.859 28.3805 181.423 28.0644L184.177 26.5016C185.335 25.8454 185.996 24.7181 185.996 23.3999V15.1386C185.996 13.8264 185.335 12.699 184.177 12.037V12.0429Z" fill="#F29840"/>
<path fill-rule="evenodd" clip-rule="evenodd" d="M179.501 18.2761C179.501 17.3218 179.009 16.4867 178.172 16.0095L176.413 15.0134C175.576 14.5362 174.588 14.5362 173.75 15.0134L171.991 16.0095C171.154 16.4867 170.663 17.3218 170.663 18.2761V20.2744C170.663 21.2287 171.154 22.0698 171.991 22.541L173.75 23.5371C174.588 24.0143 175.576 24.0143 176.413 23.5371L178.172 22.541C179.009 22.0638 179.507 21.2287 179.507 20.2744V18.2761H179.501ZM175.443 16.6597L177.202 17.6558C177.444 17.793 177.566 18.0018 177.566 18.2761V20.2744C177.566 20.5487 177.444 20.7575 177.202 20.8947L175.443 21.8908C175.2 22.028 174.958 22.028 174.715 21.8908L172.956 20.8947C172.713 20.7575 172.592 20.5487 172.592 20.2744V18.2761C172.592 18.0018 172.719 17.793 172.956 17.6558L174.715 16.6597C174.958 16.5225 175.2 16.5225 175.443 16.6597Z" fill="#0E1F3B"/>
<path fill-rule="evenodd" clip-rule="evenodd" d="M79.6198 8.5178C79.6198 8.5178 79.5713 8.5178 79.547 8.5178H78.2126C77.0844 7.19958 76.6659 5.04629 77.7273 3.81754C78.5098 2.91089 79.9473 2.61265 81.0574 3.03615C83.5928 3.99052 83.4715 8.49394 79.6198 8.5178ZM96.2517 8.5178C95.6088 8.58341 94.9355 8.59534 94.3046 8.5178C92.7519 8.32692 91.4235 7.58729 91.2354 5.75013C91.0595 4.05613 92.7579 2.6723 94.4199 2.95861C95.6451 3.16738 96.2638 4.41998 96.2517 6.01855V8.52376V8.5178ZM99.2542 11.2616H102.875C104.416 11.2616 105.49 10.7844 106.096 9.83005C106.66 10.6413 107.649 11.1006 108.747 11.2616C109.359 11.3511 110.015 11.3451 110.645 11.2616C111.81 11.1006 112.914 10.6651 113.624 10.009C114.351 10.7009 115.322 11.1184 116.341 11.2616C116.887 11.3391 117.445 11.3391 117.997 11.2616C119.641 11.029 121.169 10.1104 121.824 8.5178C122.006 8.0764 122.122 7.58132 122.152 7.03256V0.471291H119.101V6.55538C119.101 7.63501 118.203 8.51183 117.111 8.51183H116.741C115.643 8.51183 114.752 7.62904 114.752 6.55538V2.36213H111.701V6.56134C111.701 7.64097 110.803 8.5178 109.711 8.5178H109.341C108.243 8.5178 107.352 7.63501 107.352 6.56134V2.36213H104.301V6.56134C104.301 7.64097 103.403 8.5178 102.311 8.5178H99.3452V5.67259C99.3452 3.38211 98.4293 1.63443 96.8279 0.721812C94.5715 -0.566583 91.6054 -0.0655405 89.7797 1.7239C87.8872 3.57298 87.6143 6.40626 88.7182 8.47604C88.8638 8.75042 89.0397 9.01287 89.2399 9.25743C90.9746 11.3869 93.6496 11.2616 96.1304 11.2616C95.724 13.0272 93.7223 13.2837 92.1999 13.2837H90.1558V16.0454H92.7155C95.9181 16.0454 98.6719 14.5721 99.2663 11.2556L99.2542 11.2616ZM139.518 8.5178C139.045 8.5178 138.578 8.5178 138.104 8.5178C136.976 7.19958 136.558 5.04629 137.619 3.81754C138.402 2.91089 139.839 2.61265 140.949 3.03615C143.485 3.99052 143.363 8.49394 139.512 8.5178H139.518ZM129.418 7.03256V0.471291H126.367V8.5178C126.367 9.31708 126.367 10.3013 126.179 11.1065C125.815 12.6991 124.627 13.1763 123.056 13.2777L123.486 16.1468C126.938 15.7113 128.8 14.25 129.418 11.2556H139.439C140.876 11.19 142.065 10.9156 143.011 10.4444C146.026 8.93533 146.293 5.14769 144.722 2.47546C143.018 -0.429393 138.911 -0.495006 136.303 1.15724C133.822 2.72598 133.125 5.7382 134.865 8.51183H129.412V7.0266L129.418 7.03256ZM70.3455 11.2556C70.2484 11.5897 70.1938 11.9476 70.1938 12.3114V17.9183H73.2448V12.7528C73.2448 11.9297 73.9303 11.2556 74.7673 11.2556H79.5409C80.9785 11.19 82.1674 10.9156 83.1075 10.4444C86.1221 8.93533 86.389 5.14769 84.818 2.47546C83.1136 -0.429393 79.0072 -0.495006 76.399 1.15724C73.9181 2.72598 73.2206 5.7382 74.9614 8.51183H74.0455C72.2925 8.51183 70.8065 9.67497 70.3334 11.2556H70.3455Z" fill="#0E1F3B"/>
<path d="M144 20.644H140.864L134.089 32.7466L127.338 20.644H124.178V38.1567H127.684V28.619L133.027 38.1567H135.181L140.494 28.619V38.1567H144V20.644ZM111.67 35.2041C110.057 35.2041 108.698 34.6553 107.588 33.5578C106.478 32.4603 105.926 31.0824 105.926 29.4302C105.926 27.7779 106.478 26.3881 107.588 25.2727C108.698 24.1573 110.057 23.6026 111.67 23.6026C113.284 23.6026 114.643 24.1633 115.753 25.2727C116.863 26.3881 117.415 27.772 117.415 29.4302C117.415 31.0884 116.863 32.4603 115.753 33.5578C114.643 34.6553 113.284 35.2041 111.67 35.2041ZM111.67 20.2563C109.05 20.2563 106.83 21.1451 105.01 22.9226C103.197 24.7001 102.287 26.8713 102.287 29.4302C102.287 31.9891 103.197 34.1304 105.01 35.896C106.83 37.6675 109.044 38.5503 111.67 38.5503C114.297 38.5503 116.511 37.6675 118.33 35.896C120.144 34.1304 121.054 31.9712 121.054 29.4302C121.054 26.8892 120.144 24.7001 118.33 22.9226C116.517 21.1451 114.297 20.2563 111.67 20.2563ZM90.5803 35.2041C88.9669 35.2041 87.6082 34.6553 86.4982 33.5578C85.3882 32.4603 84.8362 31.0824 84.8362 29.4302C84.8362 27.7779 85.3882 26.3881 86.4982 25.2727C87.6082 24.1573 88.9669 23.6026 90.5803 23.6026C92.1938 23.6026 93.5525 24.1633 94.6625 25.2727C95.7725 26.3881 96.3244 27.772 96.3244 29.4302C96.3244 31.0884 95.7725 32.4603 94.6625 33.5578C93.5525 34.6553 92.1938 35.2041 90.5803 35.2041ZM90.5803 20.2563C87.96 20.2563 85.74 21.1451 83.9203 22.9226C82.1006 24.7001 81.1968 26.8713 81.1968 29.4302C81.1968 31.9891 82.1067 34.1304 83.9203 35.896C85.7339 37.6675 87.9539 38.5503 90.5803 38.5503C93.2067 38.5503 95.4207 37.6675 97.2404 35.896C99.054 34.1304 99.9638 31.9712 99.9638 29.4302C99.9638 26.8892 99.054 24.7001 97.2404 22.9226C95.4267 21.1451 93.2067 20.2563 90.5803 20.2563ZM71.4555 20.2563C69.381 20.2563 67.7312 20.7514 66.512 21.7356C65.2867 22.7198 64.6802 24.0022 64.6802 25.5888C64.6802 28.2909 66.239 29.961 69.3568 30.6052L73.1296 31.3091C73.8938 31.4642 74.4276 31.6908 74.7369 31.9891C75.0463 32.2873 75.204 32.6929 75.204 33.2178C75.204 33.862 74.931 34.3929 74.3791 34.8104C73.8271 35.2279 73.0507 35.4367 72.0378 35.4367C69.842 35.4367 68.5136 34.4883 68.0526 32.5855L64.2495 33.3431C64.4618 35.0132 65.2625 36.3016 66.6515 37.1963C68.0405 38.091 69.7207 38.5444 71.6859 38.5444C73.815 38.5444 75.5194 38.0493 76.8175 37.0532C78.1094 36.063 78.7584 34.7209 78.7584 33.0269C78.7584 31.6849 78.346 30.5933 77.5211 29.7463C76.6961 28.8993 75.5497 28.3207 74.0819 28.0105L70.2545 27.253C69.0656 27.0264 68.4712 26.4358 68.4712 25.4755C68.4712 24.8671 68.7381 24.3541 69.2658 23.9306C69.7995 23.5131 70.4971 23.3043 71.3645 23.3043C72.2318 23.3043 73.0507 23.5548 73.7058 24.0499C74.3609 24.545 74.7491 25.2071 74.8764 26.0243L78.4916 25.2906C78.158 23.7398 77.3512 22.511 76.0714 21.6044C74.7976 20.6977 73.2509 20.2444 71.4494 20.2444L71.4555 20.2563ZM50.5534 28.5176V23.865H55.4726C56.3036 23.865 56.9768 24.0797 57.4924 24.5032C58.008 24.9327 58.2628 25.4934 58.2628 26.1913C58.2628 26.8892 58.008 27.4499 57.4924 27.8793C56.9768 28.3028 56.3036 28.5176 55.4726 28.5176H50.5534ZM62.727 38.1626L56.7463 31.655C58.3052 31.4284 59.5487 30.8259 60.4646 29.8537C61.3865 28.8754 61.8475 27.6586 61.8475 26.1972C61.8475 24.539 61.2652 23.2029 60.0946 22.1829C58.9239 21.163 57.3832 20.656 55.4726 20.656H46.9383V38.1686H50.5534V31.7385H52.4398L58.3113 38.1686H62.721L62.727 38.1626ZM38.0764 31.2077H32.8964L35.4985 24.9625L38.0764 31.2077ZM44.882 38.1626L37.1726 20.65H33.7941L26.0847 38.1626H29.991L31.5559 34.4227H39.423L40.9636 38.1626H44.8699H44.882ZM24.0285 20.65H20.8925L14.1173 32.7526L7.36624 20.65H4.20605V38.1626H7.71198V28.6249L13.0558 38.1626H15.2091L20.5225 28.6249V38.1626H24.0285V20.65Z" fill="#0E1F3B"/>
</g>
<defs>
<clipPath id="clip0_3481_17692">
<rect width="204" height="38.5505" fill="white"/>
</clipPath>
</defs>
</svg>
