<svg width="33" height="33" viewBox="0 0 33 33" fill="none" xmlns="http://www.w3.org/2000/svg">
<path d="M15.928 2.73292C8.6627 3.24566 2.92798 9.302 2.92798 16.6978C2.92798 20.2042 4.21599 23.4083 6.34649 25.865L15.928 16.2835V2.73292ZM17.928 2.73292V15.6978H30.8928C30.4034 8.76278 24.863 3.22235 17.928 2.73292ZM30.8928 17.6978H17.3422L7.7607 27.2792C10.2175 29.4097 13.4215 30.6978 16.928 30.6978C24.3237 30.6978 30.3801 24.963 30.8928 17.6978ZM0.927979 16.6978C0.927979 7.8612 8.09142 0.697754 16.928 0.697754C25.7645 0.697754 32.928 7.8612 32.928 16.6978C32.928 25.5343 25.7645 32.6978 16.928 32.6978C12.51 32.6978 8.50861 30.9058 5.61427 28.0115C2.71993 25.1171 0.927979 21.1158 0.927979 16.6978Z" fill="black"/>
</svg>
