<svg width="51" height="39" viewBox="0 0 51 39" fill="none" xmlns="http://www.w3.org/2000/svg">
<path d="M47.6543 38.1234C47.6543 38.1234 50.8313 38.1234 50.8313 34.9465C50.8313 31.7695 47.6543 22.2387 34.9465 22.2387C22.2387 22.2387 19.0617 31.7695 19.0617 34.9465C19.0617 38.1234 22.2387 38.1234 22.2387 38.1234H47.6543ZM22.3097 34.9465C22.2986 34.9452 22.2833 34.9432 22.2646 34.9401C22.2558 34.9386 22.2471 34.9371 22.2387 34.9354C22.2433 34.0966 22.7688 31.6644 24.6508 29.4688C26.4111 27.4151 29.4907 25.4156 34.9465 25.4156C40.4023 25.4156 43.4819 27.4151 45.2422 29.4688C47.1242 31.6644 47.6497 34.0966 47.6543 34.9354C47.6458 34.9371 47.6372 34.9386 47.6284 34.9401C47.6097 34.9432 47.5943 34.9452 47.5833 34.9465H22.3097Z" fill="white"/>
<path d="M34.9465 15.8848C38.4557 15.8848 41.3004 13.04 41.3004 9.53086C41.3004 6.02169 38.4557 3.17695 34.9465 3.17695C31.4373 3.17695 28.5926 6.02169 28.5926 9.53086C28.5926 13.04 31.4373 15.8848 34.9465 15.8848ZM44.4773 9.53086C44.4773 14.7946 40.2102 19.0617 34.9465 19.0617C29.6827 19.0617 25.4156 14.7946 25.4156 9.53086C25.4156 4.26711 29.6827 0 34.9465 0C40.2102 0 44.4773 4.26711 44.4773 9.53086Z" fill="white"/>
<path d="M22.0351 23.1281C20.8667 22.7544 19.5686 22.4826 18.1286 22.3437C17.4159 22.2749 16.6685 22.2387 15.8848 22.2387C3.17695 22.2387 0 31.7695 0 34.9465C0 37.0645 1.05898 38.1234 3.17695 38.1234H16.5721C16.1248 37.2209 15.8848 36.151 15.8848 34.9465C15.8848 31.7369 17.0833 28.4592 19.3471 25.7212C20.1205 24.7858 21.0183 23.9133 22.0351 23.1281ZM15.6307 25.4171C13.7326 28.3181 12.7078 31.6256 12.7078 34.9465H3.17695C3.17695 34.1182 3.69875 31.6741 5.58908 29.4688C7.32188 27.4472 10.333 25.4781 15.6307 25.4171Z" fill="white"/>
<path d="M4.76543 11.1193C4.76543 5.85559 9.03254 1.58848 14.2963 1.58848C19.56 1.58848 23.8272 5.85559 23.8272 11.1193C23.8272 16.3831 19.56 20.6502 14.2963 20.6502C9.03254 20.6502 4.76543 16.3831 4.76543 11.1193ZM14.2963 4.76543C10.7871 4.76543 7.94238 7.61017 7.94238 11.1193C7.94238 14.6285 10.7871 17.4732 14.2963 17.4732C17.8055 17.4732 20.6502 14.6285 20.6502 11.1193C20.6502 7.61017 17.8055 4.76543 14.2963 4.76543Z" fill="white"/>
</svg>
